<svg width="85" height="40" viewBox="0 0 85 40" fill="none" xmlns="http://www.w3.org/2000/svg">
<rect width="85" height="40" rx="8" fill="white"/>
<path d="M15.6112 27.4277C16.8042 26.5426 18.1039 25.8435 19.5102 25.3305C20.9163 24.8178 22.4129 24.5614 24 24.5614C25.5871 24.5614 27.0837 24.8178 28.4898 25.3305C29.8961 25.8435 31.1958 26.5426 32.3888 27.4277C33.2613 26.4687 33.9526 25.3585 34.4628 24.0972C34.973 22.8359 35.2281 21.4702 35.2281 20C35.2281 16.8889 34.1345 14.2398 31.9474 12.0526C29.7602 9.8655 27.1111 8.77193 24 8.77193C20.8889 8.77193 18.2398 9.8655 16.0526 12.0526C13.8655 14.2398 12.7719 16.8889 12.7719 20C12.7719 21.4702 13.027 22.8359 13.5372 24.0972C14.0474 25.3585 14.7387 26.4687 15.6112 27.4277ZM24.0004 21.0526C22.7189 21.0526 21.6384 20.6129 20.7586 19.7333C19.8786 18.8536 19.4386 17.773 19.4386 16.4916C19.4386 15.2102 19.8784 14.1296 20.7579 13.2498C21.6377 12.3698 22.7182 11.9298 23.9997 11.9298C25.2811 11.9298 26.3616 12.3696 27.2414 13.2491C28.1214 14.1289 28.5614 15.2095 28.5614 16.4909C28.5614 17.7723 28.1216 18.8529 27.2421 19.7326C26.3623 20.6126 25.2818 21.0526 24.0004 21.0526ZM24 33.3333C22.1485 33.3333 20.4117 32.9851 18.7895 32.2888C17.1673 31.5924 15.7561 30.6441 14.5561 29.4439C13.3559 28.2439 12.4076 26.8327 11.7112 25.2105C11.0149 23.5883 10.6667 21.8515 10.6667 20C10.6667 18.1485 11.0149 16.4117 11.7112 14.7895C12.4076 13.1673 13.3559 11.7561 14.5561 10.5561C15.7561 9.35591 17.1673 8.4076 18.7895 7.71123C20.4117 7.01485 22.1485 6.66667 24 6.66667C25.8515 6.66667 27.5883 7.01485 29.2105 7.71123C30.8327 8.4076 32.2439 9.35591 33.4439 10.5561C34.6441 11.7561 35.5924 13.1673 36.2888 14.7895C36.9851 16.4117 37.3333 18.1485 37.3333 20C37.3333 21.8515 36.9851 23.5883 36.2888 25.2105C35.5924 26.8327 34.6441 28.2439 33.4439 29.4439C32.2439 30.6441 30.8327 31.5924 29.2105 32.2888C27.5883 32.9851 25.8515 33.3333 24 33.3333ZM24 31.2281C25.2667 31.2281 26.488 31.0243 27.6639 30.6168C28.8398 30.2091 29.8839 29.6392 30.7961 28.907C29.8839 28.2015 28.8533 27.6518 27.7046 27.2579C26.5556 26.8637 25.3207 26.6667 24 26.6667C22.6793 26.6667 21.4422 26.8614 20.2888 27.2509C19.1353 27.6406 18.107 28.1926 17.2039 28.907C18.1161 29.6392 19.1602 30.2091 20.3361 30.6168C21.512 31.0243 22.7333 31.2281 24 31.2281ZM24 18.9474C24.6982 18.9474 25.2821 18.7125 25.7516 18.2428C26.2213 17.7733 26.4561 17.1895 26.4561 16.4912C26.4561 15.793 26.2213 15.2091 25.7516 14.7396C25.2821 14.2699 24.6982 14.0351 24 14.0351C23.3018 14.0351 22.7179 14.2699 22.2484 14.7396C21.7787 15.2091 21.5439 15.793 21.5439 16.4912C21.5439 17.1895 21.7787 17.7733 22.2484 18.2428C22.7179 18.7125 23.3018 18.9474 24 18.9474Z" fill="#284E35"/>
<path d="M61.3787 18.5305L55.9546 23.9546L54.7121 22.7121L61.3787 16.0454L68.0454 22.7121L66.8029 23.9546L61.3787 18.5305Z" fill="#646464"/>
</svg>
