<svg width="21" height="19" viewBox="0 0 21 19" fill="none" xmlns="http://www.w3.org/2000/svg">
<path d="M10.3455 18.25L9.22101 17.2391C7.53215 15.7069 6.13551 14.3904 5.03111 13.2894C3.92671 12.1882 3.05155 11.2082 2.40562 10.3493C1.75969 9.49062 1.30843 8.70723 1.05186 7.99915C0.795119 7.29124 0.666748 6.57289 0.666748 5.8441C0.666748 4.39822 1.15425 3.18769 2.12926 2.21251C3.10444 1.2375 4.31497 0.75 5.76084 0.75C6.65027 0.75 7.4908 0.958009 8.28242 1.37403C9.07404 1.79004 9.76175 2.38665 10.3455 3.16384C10.9293 2.38665 11.617 1.79004 12.4086 1.37403C13.2003 0.958009 14.0408 0.75 14.9302 0.75C16.3761 0.75 17.5866 1.2375 18.5618 2.21251C19.5368 3.18769 20.0243 4.39822 20.0243 5.8441C20.0243 6.57289 19.8959 7.29124 19.6392 7.99915C19.3826 8.70723 18.9314 9.49062 18.2854 10.3493C17.6395 11.2082 16.766 12.1882 15.6648 13.2894C14.5638 14.3904 13.1655 15.7069 11.4701 17.2391L10.3455 18.25ZM10.3455 16.1851C11.9756 14.7183 13.3171 13.4611 14.3699 12.4134C15.4226 11.3659 16.2547 10.4559 16.866 9.68326C17.4773 8.91066 17.9018 8.22457 18.1395 7.62499C18.3772 7.02559 18.4961 6.43195 18.4961 5.8441C18.4961 4.82528 18.1565 3.97626 17.4773 3.29705C16.798 2.61783 15.949 2.27823 14.9302 2.27823C14.1257 2.27823 13.3821 2.50644 12.6995 2.96288C12.0171 3.41948 11.4767 4.05462 11.0783 4.86832H9.61274C9.20776 4.048 8.66567 3.41124 7.98645 2.95804C7.30724 2.50483 6.56537 2.27823 5.76084 2.27823C4.74848 2.27823 3.90107 2.61783 3.21864 3.29705C2.5362 3.97626 2.19498 4.82528 2.19498 5.8441C2.19498 6.43195 2.31384 7.02559 2.55156 7.62499C2.78929 8.22457 3.2138 8.91066 3.82509 9.68326C4.43638 10.4559 5.26841 11.3643 6.32119 12.4086C7.37397 13.4529 8.71542 14.7117 10.3455 16.1851Z" fill="#DD1E1E"/>
</svg>
